<mxfile host="app.diagrams.net" modified="2023-07-19T03:10:17.604Z" agent="Mozilla/5.0 (Macintosh; Intel Mac OS X 10_15_7) AppleWebKit/537.36 (KHTML, like Gecko) Chrome/114.0.0.0 Safari/537.36" etag="s_BLRDHZp1IBEkn7bHc8" version="21.6.2" type="github">
  <diagram name="第 1 页" id="m_ZPABWS3eJwcBrG6T2o">
    <mxGraphModel dx="1026" dy="569" grid="1" gridSize="10" guides="1" tooltips="1" connect="1" arrows="1" fold="1" page="1" pageScale="1" pageWidth="827" pageHeight="1169" math="0" shadow="0">
      <root>
        <mxCell id="0" />
        <mxCell id="1" parent="0" />
        <mxCell id="TLqsTS-bNY4dlX9b7dbJ-1" value="&lt;h1&gt;涉及开源项目&lt;/h1&gt;&lt;p&gt;无法保证未来是否会变化, 严谨起见需要提及版本&lt;/p&gt;" style="text;html=1;strokeColor=none;fillColor=none;spacing=5;spacingTop=-20;whiteSpace=wrap;overflow=hidden;rounded=0;" vertex="1" parent="1">
          <mxGeometry x="100" y="50" width="190" height="120" as="geometry" />
        </mxCell>
      </root>
    </mxGraphModel>
  </diagram>
</mxfile>
